<?xml version="1.0" standalone="no"?><!DOCTYPE svg PUBLIC "-//W3C//DTD SVG 1.1//EN" "http://www.w3.org/Graphics/SVG/1.1/DTD/svg11.dtd"><svg t="1511407406777" class="icon" style="" viewBox="0 0 1024 1024" version="1.1" xmlns="http://www.w3.org/2000/svg" p-id="2970" xmlns:xlink="http://www.w3.org/1999/xlink" width="32" height="32"><defs><style type="text/css"></style></defs><path d="M455.21586 26.2c30.5-34.9 83.2-34.9 113.6 0l211.6 242.4L1019.11586 542c12.4 14.2 0 34-21.4 34H26.31586C5.01586 576-7.48414 556.2 4.91586 542l238.7-273.4L455.21586 26.2z" fill="#ffffff" p-id="2971"></path><path d="M128.01586 618v406h225.9c16.6 0 30.1-14.6 30.1-32.7V739.1c0-62.9 57.3-114 128-114s128 51 128 114v252.2c0 18.1 13.5 32.7 30.1 32.7H896.01586V618H128.01586z" fill="#ffffff" p-id="2972"></path><path d="M988.11586 618H35.91586C16.21586 618 0.01586 601.8 0.01586 582.1v-56.2C0.01586 506.2 16.21586 490 35.91586 490h952.2c19.7 0 35.9 16.2 35.9 35.9v56.2c0 19.7-16.2 35.9-35.9 35.9z" fill="#ffffff" p-id="2973"></path></svg>