<?xml version="1.0" standalone="no"?><!DOCTYPE svg PUBLIC "-//W3C//DTD SVG 1.1//EN" "http://www.w3.org/Graphics/SVG/1.1/DTD/svg11.dtd"><svg t="1512216036584" class="icon" style="" viewBox="0 0 1024 1024" version="1.1" xmlns="http://www.w3.org/2000/svg" p-id="993" xmlns:xlink="http://www.w3.org/1999/xlink" width="48" height="48"><defs><style type="text/css"></style></defs><path d="M513.061169 512m-421.626714 0a421.626713 421.626713 0 1 0 843.253427 0 421.626713 421.626713 0 1 0-843.253427 0Z" fill="#F05B3D" p-id="994" data-spm-anchor-id="a313x.7781069.0.i2." class="selected"></path><path d="M348.772428 616.820324l-38.181601 107.780748a17.692964 17.692964 0 0 0 4.093225 18.338671c4.749164 4.834098 11.881608 6.53688 18.339694 4.386914l56.608275-18.820648 32.241309 50.079582c3.678786 5.677303 10.292414 8.826016 17.044188 8.051373a17.785062 17.785062 0 0 0 14.730493-11.715833l38.803771-109.570511-48.405453-41.959647-95.273901-6.570649zM694.498474 616.820324l-95.272877 6.554276-48.405453 42.011836 38.786375 109.500926c2.26253 6.417153 7.995091 10.958586 14.747889 11.749602a17.803481 17.803481 0 0 0 17.026792-8.051373l32.206516-50.079582 56.608275 18.820648a17.856693 17.856693 0 0 0 18.339694-4.386914 17.73185 17.73185 0 0 0 4.075828-18.338671l-38.113039-107.780748zM640.826064 588.05621c17.5804-1.221828 31.480992-15.138792 32.741705-32.617885l3.78214-54.483892 35.971259-41.168632c11.570523-13.211906 11.570523-32.893154 0.017396-46.106084l-35.988655-41.168632-3.78214-54.449099c-1.191128-17.479093-15.162328-31.397081-32.741705-32.600489l-54.674227-3.767813-41.342594-35.817764c-13.245675-11.509125-33.001625-11.509125-46.281069 0.017396l-41.325198 35.83516-54.690599 3.750417c-17.545608 1.204431-31.498388 15.105023-32.707936 32.600489l-3.799536 54.466496-35.97126 41.185004c-11.535731 13.211906-11.535731 32.875758 0 46.088688l35.97126 41.168632 3.782139 54.483892c1.208525 17.479093 15.179724 31.344892 32.724309 32.584116l54.725392 3.78521 41.325198 35.835159c13.245675 11.509125 33.001625 11.509125 46.281069 0l41.307802-35.835159 54.67525-3.78521z m-68.506257-112.89114l3.971452 36.196387c0.760317 6.795776-3.747347 10.04682-9.946537 7.242961l-33.329083-15.019065c-6.251378-2.803859-16.474206-2.803859-22.725584 0l-33.29429 15.019065c-6.251378 2.803859-10.759041-0.447185-9.963933-7.242961l3.988848-36.196387c0.794086-6.77838-2.38328-16.498766-6.994298-21.538549l-24.64326-26.924209c-4.611018-5.02341-2.883677-10.304693 3.816932-11.698437l35.815717-7.362688c6.718005-1.376347 15.006785-7.362688 18.391883-13.298887l18.080797-31.637558c3.385097-5.952572 8.928347-5.952572 12.296047 0l18.11559 31.637558c3.350304 5.952572 11.673877 11.938913 18.35709 13.298887l35.833113 7.362688c6.700609 1.393743 8.393157 6.65763 3.816932 11.698437l-24.64326 26.924209c-4.595668 5.040806-7.755638 14.743796-6.944156 21.538549z" fill="#FFFFFF" p-id="995" data-spm-anchor-id="a313x.7781069.0.i1." class=""></path></svg>